<svg width="24" height="24" viewBox="0 0 24 24" fill="none" xmlns="http://www.w3.org/2000/svg">
<path d="M10.9441 6.08409C11.2949 6.03032 11.6492 6.00358 12.0041 6.00409C15.1841 6.00409 18.1741 8.29409 19.9141 12.0041C19.648 12.5687 19.3474 13.1164 19.0141 13.6441C18.9083 13.8079 18.8527 13.9991 18.8541 14.1941C18.8563 14.4123 18.9299 14.6238 19.0636 14.7964C19.1972 14.9689 19.3837 15.0929 19.5944 15.1496C19.8052 15.2063 20.0287 15.1924 20.2309 15.1102C20.433 15.0279 20.6027 14.8818 20.7141 14.6941C21.18 13.962 21.5847 13.1927 21.9241 12.3941C21.9777 12.2693 22.0054 12.1349 22.0054 11.9991C22.0054 11.8633 21.9777 11.7289 21.9241 11.6041C19.9041 6.91409 16.1041 4.00409 12.0041 4.00409C11.5348 4.00173 11.0662 4.04189 10.6041 4.12409C10.4728 4.14642 10.3471 4.19439 10.2343 4.26527C10.1216 4.33615 10.0238 4.42855 9.94678 4.53719C9.8697 4.64584 9.81479 4.7686 9.78516 4.89847C9.75553 5.02834 9.75177 5.16277 9.77409 5.29409C9.79642 5.42541 9.84439 5.55105 9.91527 5.66383C9.98615 5.77662 10.0785 5.87433 10.1872 5.95141C10.2958 6.02848 10.4186 6.0834 10.5485 6.11303C10.6783 6.14266 10.8128 6.14642 10.9441 6.12409V6.08409ZM3.71409 2.29409C3.62085 2.20085 3.51016 2.12689 3.38834 2.07643C3.26652 2.02597 3.13595 2 3.00409 2C2.87223 2 2.74166 2.02597 2.61984 2.07643C2.49802 2.12689 2.38733 2.20085 2.29409 2.29409C2.10579 2.4824 2 2.73779 2 3.00409C2 3.27039 2.10579 3.52579 2.29409 3.71409L5.39409 6.80409C3.97966 8.16562 2.85395 9.79808 2.08409 11.6041C2.02903 11.7303 2.00061 11.8664 2.00061 12.0041C2.00061 12.1417 2.02903 12.2779 2.08409 12.4041C4.10409 17.0941 7.90409 20.0041 12.0041 20.0041C13.8012 19.9917 15.5559 19.4566 17.0541 18.4641L20.2941 21.7141C20.3871 21.8078 20.4977 21.8822 20.6195 21.933C20.7414 21.9838 20.8721 22.0099 21.0041 22.0099C21.1361 22.0099 21.2668 21.9838 21.3887 21.933C21.5105 21.8822 21.6211 21.8078 21.7141 21.7141C21.8078 21.6211 21.8822 21.5105 21.933 21.3887C21.9838 21.2668 22.0099 21.1361 22.0099 21.0041C22.0099 20.8721 21.9838 20.7414 21.933 20.6195C21.8822 20.4977 21.8078 20.3871 21.7141 20.2941L3.71409 2.29409ZM10.0741 11.4841L12.5241 13.9341C12.3551 13.9826 12.1799 14.0061 12.0041 14.0041C11.4737 14.0041 10.965 13.7934 10.5899 13.4183C10.2148 13.0432 10.0041 12.5345 10.0041 12.0041C10.002 11.8283 10.0256 11.6531 10.0741 11.4841ZM12.0041 18.0041C8.82409 18.0041 5.83409 15.7141 4.10409 12.0041C4.75018 10.5778 5.66716 9.29067 6.80409 8.21409L8.57409 10.0041C8.15834 10.7629 7.99983 11.636 8.12235 12.4925C8.24487 13.3491 8.64181 14.1428 9.25362 14.7546C9.86543 15.3664 10.6591 15.7633 11.5156 15.8858C12.3721 16.0084 13.2453 15.8498 14.0041 15.4341L15.5941 17.0041C14.5052 17.645 13.2675 17.9897 12.0041 18.0041Z" fill="white"/>
</svg>
