<svg xmlns="http://www.w3.org/2000/svg" xmlns:xlink="http://www.w3.org/1999/xlink" width="24" height="24" preserveAspectRatio="xMidYMid meet" viewBox="0 0 24 24" style="-ms-transform: rotate(360deg); -webkit-transform: rotate(360deg); transform: rotate(360deg);"><path d="M15 11.586V6h2V4a2 2 0 0 0-2-2H9a2 2 0 0 0-2 2v2h2v5.586l-2.707 1.707A.996.996 0 0 0 6 14v2a1 1 0 0 0 1 1h4v3l1 2l1-2v-3h4a1 1 0 0 0 1-1v-2a.996.996 0 0 0-.293-.707L15 11.586z" fill="#FFFFFF"/><rect x="0" y="0" width="24" height="24" fill="rgba(0, 0, 0, 0)" /></svg>